<svg xmlns="http://www.w3.org/2000/svg" width="177.161" height="38.774" viewBox="0 0 177.161 38.774"><defs><style>.a{fill:#fff;}</style></defs><g transform="translate(-1.5 -1.497)"><g transform="translate(49.802 4.699)"><path class="a" d="M140.617,10.79a5.533,5.533,0,0,1,.295,1.7,5.865,5.865,0,0,1-.295,1.874h-8.163v5.1h6.682a5.74,5.74,0,0,1,.295,1.729,5.477,5.477,0,0,1-.295,1.817h-6.682v5.305h8.453a5.248,5.248,0,0,1,.295,1.76,5.142,5.142,0,0,1-.295,1.832H127.78V10.79Z" transform="translate(-127.78 -10.438)"/><path class="a" d="M170.45,11.051a8.834,8.834,0,0,1,2.314-.264,9.338,9.338,0,0,1,2.375.264V31.622a9.51,9.51,0,0,1-2.345.264,8.159,8.159,0,0,1-2.345-.264Z" transform="translate(-154.129 -10.436)"/><path class="a" d="M200.287,9.87a11.037,11.037,0,0,1,5.393,1.148,4.142,4.142,0,0,1-1.346,3.225,11.051,11.051,0,0,0-3.443-.585c-2.976,0-4.888,1.549-4.888,7.145s1.913,7.061,4.892,7.061a11.643,11.643,0,0,0,3.691-.646,4.506,4.506,0,0,1,1.377,3.312,11.916,11.916,0,0,1-5.684,1.148c-5.979,0-9.23-3.825-9.23-10.9S194.309,9.87,200.287,9.87Z" transform="translate(-166.849 -9.87)"/><path class="a" d="M247.663,11.049a9.957,9.957,0,0,1,2.345-.264,11.57,11.57,0,0,1,2.49.264l-5.86,9.467,6.77,11.093a12.812,12.812,0,0,1-2.743.295,10.473,10.473,0,0,1-2.578-.264l-5.454-8.954H241.52V31.62a7.686,7.686,0,0,1-2.345.264,8.68,8.68,0,0,1-2.345-.264V11.049a8.8,8.8,0,0,1,2.375-.264,8.31,8.31,0,0,1,2.314.264v8.117h1.113Z" transform="translate(-195.118 -10.433)"/><path class="a" d="M296.354,11.051a10.559,10.559,0,0,1,4.689,0V31.622a8.835,8.835,0,0,1-2.314.264,8.29,8.29,0,0,1-2.375-.264V22.978H289.76v8.645a9.509,9.509,0,0,1-2.345.264,8.16,8.16,0,0,1-2.345-.264V11.051a8.834,8.834,0,0,1,2.314-.264,9.338,9.338,0,0,1,2.375.264v8.117h6.594Z" transform="translate(-224.906 -10.436)"/><path class="a" d="M344.138,9.87c5.393,0,8.851,3.282,8.851,10.9s-3.4,10.9-8.851,10.9-8.878-3.282-8.878-10.9C335.256,13.24,338.714,9.87,344.138,9.87Zm0,3.664c-2.4,0-3.9,1.408-3.9,7.237s1.5,7.21,3.9,7.21,3.9-1.408,3.9-7.21S346.571,13.534,344.138,13.534Z" transform="translate(-255.898 -9.87)"/><path class="a" d="M394.8,31.625a9.338,9.338,0,0,1-2.375.264,8.835,8.835,0,0,1-2.314-.264V10.79h12.542a5.944,5.944,0,0,1,.295,1.76,5.478,5.478,0,0,1-.295,1.817H394.8v5.481h6.973a4.717,4.717,0,0,1,.295,1.729,5.42,5.42,0,0,1-.295,1.847H394.8Z" transform="translate(-289.768 -10.438)"/><path class="a" d="M435.79,31.625a9.338,9.338,0,0,1-2.375.264,8.835,8.835,0,0,1-2.314-.264V10.79h12.542a5.943,5.943,0,0,1,.295,1.76,5.478,5.478,0,0,1-.295,1.817H435.79v5.481h6.973a4.718,4.718,0,0,1,.295,1.729,5.42,5.42,0,0,1-.295,1.847H435.79Z" transform="translate(-315.079 -10.438)"/></g><g transform="translate(49.841 30.181)"><path class="a" d="M130.7,79.184a4.457,4.457,0,0,1,1.817.31.792.792,0,0,1-.222.536A5.049,5.049,0,0,0,130.8,79.8c-1.247,0-2.184.662-2.184,2.991s.937,2.961,2.184,2.961a5.194,5.194,0,0,0,1.148-.126V83.1h-1.6a.725.725,0,0,1-.057-.3.628.628,0,0,1,.057-.3h2.3v3.58a5.089,5.089,0,0,1-1.913.321c-1.832,0-2.853-1.2-2.853-3.6S128.855,79.184,130.7,79.184Z" transform="translate(-127.88 -78.15)"/><path class="a" d="M145.48,77.62a1.181,1.181,0,0,1,.382.057l2.582,6.885a1.04,1.04,0,0,1-.383.057.844.844,0,0,1-.352-.057l-.7-1.859H143.9l-.711,1.859a.844.844,0,0,1-.352.057.768.768,0,0,1-.34-.057l2.582-6.885A1.24,1.24,0,0,1,145.48,77.62Zm-.038.838a5.227,5.227,0,0,1-.2.673l-1.148,2.98h2.678l-1.147-2.98a5.885,5.885,0,0,1-.2-.673Zm-.765-1.966a1.354,1.354,0,0,1,.36.038v.643a1.354,1.354,0,0,1-.36.038,1.265,1.265,0,0,1-.36-.038V76.53a1.252,1.252,0,0,1,.375-.042Zm1.53,0a1.355,1.355,0,0,1,.36.038v.643a1.355,1.355,0,0,1-.36.038,1.264,1.264,0,0,1-.36-.038V76.53a1.253,1.253,0,0,1,.382-.042Z" transform="translate(-136.908 -76.487)"/><path class="a" d="M163.385,79.441a1.878,1.878,0,0,1,2.015,1.731,1.927,1.927,0,0,1,0,.266A1.828,1.828,0,0,1,164,83.35l1.687,3.041a1.528,1.528,0,0,1-.838,0l-1.637-2.961h-1.53v2.961a1.15,1.15,0,0,1-.719,0v-6.95Zm-1.694,3.381h1.626a1.386,1.386,0,0,0,0-2.769h-1.626Z" transform="translate(-148.307 -78.308)"/><path class="a" d="M179.216,79.45a.762.762,0,0,1,.057.31.894.894,0,0,1-.057.321H177.3V86.4a.936.936,0,0,1-.36.057.819.819,0,0,1-.36-.057V80.081h-1.947a.831.831,0,0,1-.057-.321.8.8,0,0,1,.057-.31Z" transform="translate(-156.717 -78.317)"/><path class="a" d="M193.882,79.45a.684.684,0,0,1,.057.291.762.762,0,0,1-.057.31h-3.148v2.563h2.678a.7.7,0,0,1,.057.283.818.818,0,0,1-.057.31h-2.678v2.651h3.244a.71.71,0,0,1,.057.291.838.838,0,0,1-.057.314H190V79.45Z" transform="translate(-166.239 -78.317)"/><path class="a" d="M205.348,81.463a6.785,6.785,0,0,1-.524-1.071h-.031s.05.528.05,1.48V86.42a.768.768,0,0,1-.34.057.74.74,0,0,1-.333-.057V79.535a1.332,1.332,0,0,1,.428-.057,1.2,1.2,0,0,1,.428.057l2.853,4.9a9.32,9.32,0,0,1,.555,1.148h.031s-.057-.623-.057-1.45v-4.59a.8.8,0,0,1,.352-.057.628.628,0,0,1,.321.057v6.885a1.07,1.07,0,0,1-.409.057,1.289,1.289,0,0,1-.44-.057Z" transform="translate(-174.989 -78.333)"/><path class="a" d="M233.7,79.449a1.738,1.738,0,0,1,.478.057v6.885a1.15,1.15,0,0,1-.719,0v-4.12c0-.838,0-1.607.05-1.947h-.031a11.562,11.562,0,0,1-.662,1.431l-1.629,2.876a.719.719,0,0,1-.245.038.6.6,0,0,1-.226-.038c-.516-.956-1.04-1.913-1.557-2.865a9.588,9.588,0,0,1-.673-1.45h-.031a13.948,13.948,0,0,1,.077,1.913V86.4a.768.768,0,0,1-.333.057.793.793,0,0,1-.333-.057V79.518a1.449,1.449,0,0,1,.44-.057,1.8,1.8,0,0,1,.44.057l1.695,3.1a8.786,8.786,0,0,1,.5,1.1h.038A3.716,3.716,0,0,1,231.32,83c.643-1.148,1.278-2.318,1.913-3.477A1.848,1.848,0,0,1,233.7,79.449Z" transform="translate(-189.623 -78.316)"/><path class="a" d="M249.23,79.507a1.15,1.15,0,0,1,.719,0v6.885a.936.936,0,0,1-.36.057.819.819,0,0,1-.36-.057Z" transform="translate(-202.813 -78.316)"/><path class="a" d="M258.906,79.45a.762.762,0,0,1,.057.31.894.894,0,0,1-.057.321h-1.913V86.4a.936.936,0,0,1-.36.057.819.819,0,0,1-.36-.057V80.081h-1.947a.831.831,0,0,1-.057-.321.8.8,0,0,1,.057-.31Z" transform="translate(-205.925 -78.317)"/><path class="a" d="M276.492,79.189a5.87,5.87,0,0,1,1.84.264.885.885,0,0,1-.2.566,6.168,6.168,0,0,0-1.53-.2c-1.148,0-1.687.478-1.687,1.278,0,.887.83,1.082,1.794,1.366s1.913.662,1.913,1.978c0,1.247-.849,1.966-2.375,1.966a5.029,5.029,0,0,1-2.035-.382,1.011,1.011,0,0,1,.184-.574,6.377,6.377,0,0,0,1.8.3c1.1,0,1.687-.448,1.687-1.3s-.723-1.128-1.488-1.335c-1.033-.321-2.23-.574-2.23-1.989C274.181,79.961,274.973,79.189,276.492,79.189Z" transform="translate(-218.214 -78.155)"/><path class="a" d="M292.386,79.45a.762.762,0,0,1,.057.31.894.894,0,0,1-.057.321h-1.913V86.4a.936.936,0,0,1-.36.057.819.819,0,0,1-.36-.057V80.081h-1.947a.831.831,0,0,1-.057-.321.8.8,0,0,1,.057-.31Z" transform="translate(-226.599 -78.317)"/><path class="a" d="M303.2,79.507a1.15,1.15,0,0,1,.719,0v6.885a.936.936,0,0,1-.36.057.819.819,0,0,1-.36-.057Z" transform="translate(-236.139 -78.316)"/><path class="a" d="M310,79.506a.936.936,0,0,1,.36-.057.88.88,0,0,1,.36.057v6.323h3.06a1.151,1.151,0,0,1,.05.31,1.237,1.237,0,0,1-.05.321H310Z" transform="translate(-240.338 -78.315)"/></g><g transform="translate(1.5 1.497)"><path class="a" d="M44.783,1.514l.007.01q.547.792,1.067,1.6l.056.088a58.425,58.425,0,0,1,2.945,5.156c.218-.151.44-.3.66-.447s.409-.279.615-.415c.312-.207.627-.407.942-.609q.74-.473,1.491-.928c.174-.105.346-.212.521-.316.357-.212.717-.419,1.078-.625.146-.083.292-.168.439-.25q.581-.327,1.169-.643l.29-.155q2.1-1.117,4.268-2.1C56.348,1.587,50.62,1.445,44.783,1.514Z" transform="translate(-28.227 -1.497)"/><path class="a" d="M60.638,27.924c-.018.337-.05.673-.079,1.009-.01.118-.016.236-.028.353-.036.36-.083.718-.131,1.076-.014.1-.024.208-.039.312-.053.367-.116.732-.182,1.1-.017.093-.031.186-.049.278-.071.374-.152.745-.237,1.116-.013.058-.024.117-.037.175l0,0v0a59.585,59.585,0,0,1,9.391,7.377,13.215,13.215,0,0,0,3.62-.635V39.71h.385c.576-1.1,1.15-7.884,1.15-17.853S73.832,5.1,73.256,4h-.385V3.625a10.216,10.216,0,0,0-2.727-.543A70.589,70.589,0,0,0,59.723,8.443c-.1.062-.2.126-.295.188q-.656.414-1.3.842c-.192.128-.382.259-.573.388q-.394.266-.784.538a37.294,37.294,0,0,1,3.906,16.157C60.671,27.013,60.662,27.47,60.638,27.924Z" transform="translate(-35.627 -2.476)"/><path class="a" d="M74.894,3.075a70.6,70.6,0,0,0-10.4,5.363A70.589,70.589,0,0,1,74.916,3.078Z" transform="translate(-40.399 -2.471)"/><path class="a" d="M60.314,18.431q.647-.429,1.3-.842C61.181,17.866,60.745,18.145,60.314,18.431Z" transform="translate(-37.817 -11.434)"/><path class="a" d="M56.761,21.337l0,0q.39-.271.784-.538C57.285,20.981,57.021,21.156,56.761,21.337Z" transform="translate(-35.623 -13.419)"/><path class="a" d="M7.051,24.35c.039-.065.08-.13.12-.195q.522-.855,1.075-1.691c.033-.049.066-.1.1-.145q.573-.855,1.178-1.689l.061-.081q.629-.86,1.291-1.693l0,0,.018-.022A53.733,53.733,0,0,1,21.179,9.087a57.3,57.3,0,0,0-4.51-7.494C8.4,1.739,3.9,2.257,3.03,2.7v.383H2.645c-.808,1.494-1.33,12.657-1.084,23.271.155-.015.311-.025.466-.038.137-.011.273-.024.411-.034.325-.024.651-.043.977-.059.091,0,.182-.011.274-.015q.63-.026,1.26-.031c.086,0,.173,0,.259,0,.258,0,.516,0,.774,0l.008-.014H6c.023-.041.048-.081.071-.123Q6.544,25.192,7.051,24.35Z" transform="translate(-1.5 -1.556)"/><path class="a" d="M34.7,40.794a35.294,35.294,0,0,0-3.678-16.771,52.59,52.59,0,0,0-9.918,9.4,50.5,50.5,0,0,0-4.487,6.652c1.11.063,2.221.178,3.316.346a39.59,39.59,0,0,1,14.1,5.23A29.869,29.869,0,0,0,34.7,40.794Z" transform="translate(-10.835 -15.407)"/><path class="a" d="M59.32,87.244q-.211.629-.442,1.25c-.033.087-.063.175-.1.262-.177.465-.367.924-.562,1.381q-.092.214-.186.427c-.2.449-.4.894-.618,1.335-.016.033-.03.067-.046.1,4.088-.032,7.877-.166,10.723-.379a58.418,58.418,0,0,0-8.166-6.346c-.013.049-.03.1-.044.145q-.2.715-.429,1.422C59.411,86.975,59.365,87.109,59.32,87.244Z" transform="translate(-35.999 -53.228)"/><path class="a" d="M1.738,69.05c.086,2.969.235,5.576.426,7.559l.007-.019q.7-1.974,1.539-3.9l.009-.02q.84-1.932,1.809-3.8A34.15,34.15,0,0,0,1.738,69.05Z" transform="translate(-1.647 -43.097)"/><path class="a" d="M22.962,81.9a37.249,37.249,0,0,0,2.827-7.367A38.623,38.623,0,0,0,11.8,69.276h0a33.886,33.886,0,0,0-3.76-.363A60.543,60.543,0,0,0,3.732,79.243a5.052,5.052,0,0,0,.306,1.124h.378v.386C5.546,81.355,12.579,81.927,22.962,81.9Z" transform="translate(-2.878 -43.125)"/><path class="a" d="M22.962,81.9a37.249,37.249,0,0,0,2.827-7.367A38.623,38.623,0,0,0,11.8,69.276h0a33.886,33.886,0,0,0-3.76-.363A60.543,60.543,0,0,0,3.732,79.243a5.052,5.052,0,0,0,.306,1.124h.378v.386C5.546,81.355,12.579,81.927,22.962,81.9Z" transform="translate(-2.878 -43.125)"/></g></g></svg>